<mxfile host="app.diagrams.net" modified="2023-09-22T15:29:06.665Z" agent="Mozilla/5.0 (Macintosh; Intel Mac OS X 10_15_7) AppleWebKit/537.36 (KHTML, like Gecko) Chrome/116.0.0.0 Safari/537.36" version="21.8.0" etag="e4cBf36MY0Y7XWFsGMIe" type="github">
  <diagram name="Page-1" id="2De19-GFRlz3SGY3y6sL">
    <mxGraphModel>
      <root>
        <mxCell id="0" />
        <mxCell id="1" parent="0" />
      </root>
    </mxGraphModel>
  </diagram>
</mxfile>
